<mxfile host="Electron" agent="Mozilla/5.0 (Windows NT 10.0; Win64; x64) AppleWebKit/537.36 (KHTML, like Gecko) draw.io/25.0.2 Chrome/128.0.6613.186 Electron/32.2.5 Safari/537.36" version="25.0.2">
  <diagram name="Page-1" id="MdhETReFcp8mCxD8eB66">
    <mxGraphModel dx="819" dy="459" grid="1" gridSize="10" guides="1" tooltips="1" connect="1" arrows="1" fold="1" page="1" pageScale="1" pageWidth="1169" pageHeight="1654" math="0" shadow="0">
      <root>
        <mxCell id="0" />
        <mxCell id="1" parent="0" />
        <mxCell id="qVubjtH19KVvBnq9pwk1-79" value="" style="strokeWidth=1;shadow=0;dashed=0;align=center;html=1;shape=mxgraph.mockup.containers.browserWindow;rSize=0;strokeColor2=#008cff;strokeColor3=#c4c4c4;mainText=,;recursiveResize=0;" vertex="1" parent="1">
          <mxGeometry x="42" y="50" width="560" height="380" as="geometry" />
        </mxCell>
        <mxCell id="qVubjtH19KVvBnq9pwk1-80" value="" style="rounded=0;whiteSpace=wrap;html=1;fillColor=#d5e8d4;strokeColor=#000000;" vertex="1" parent="qVubjtH19KVvBnq9pwk1-79">
          <mxGeometry y="110" width="560" height="270" as="geometry" />
        </mxCell>
        <mxCell id="qVubjtH19KVvBnq9pwk1-81" value="Дороги Рос..." style="strokeWidth=1;shadow=0;dashed=0;align=center;html=1;shape=mxgraph.mockup.containers.anchor;fontSize=17;fontColor=#666666;align=left;whiteSpace=wrap;" vertex="1" parent="qVubjtH19KVvBnq9pwk1-79">
          <mxGeometry x="60" y="12" width="110" height="26" as="geometry" />
        </mxCell>
        <mxCell id="qVubjtH19KVvBnq9pwk1-82" value="https://RussionsWays" style="strokeWidth=1;shadow=0;dashed=0;align=center;html=1;shape=mxgraph.mockup.containers.anchor;rSize=0;fontSize=17;fontColor=#666666;align=left;" vertex="1" parent="qVubjtH19KVvBnq9pwk1-79">
          <mxGeometry x="130" y="60" width="250" height="26" as="geometry" />
        </mxCell>
        <mxCell id="qVubjtH19KVvBnq9pwk1-83" value="" style="rounded=0;whiteSpace=wrap;html=1;fillColor=#60a917;strokeColor=#2D7600;fontColor=#ffffff;" vertex="1" parent="qVubjtH19KVvBnq9pwk1-79">
          <mxGeometry x="315" y="157" width="90" height="60" as="geometry" />
        </mxCell>
        <mxCell id="qVubjtH19KVvBnq9pwk1-84" value="" style="rounded=0;whiteSpace=wrap;html=1;fillColor=#60a917;strokeColor=#2D7600;fontColor=#ffffff;" vertex="1" parent="qVubjtH19KVvBnq9pwk1-79">
          <mxGeometry x="437" y="157" width="90" height="60" as="geometry" />
        </mxCell>
        <mxCell id="qVubjtH19KVvBnq9pwk1-85" value="" style="rounded=0;whiteSpace=wrap;html=1;fillColor=#60a917;strokeColor=#2D7600;fontColor=#ffffff;align=left;" vertex="1" parent="qVubjtH19KVvBnq9pwk1-79">
          <mxGeometry x="315" y="230" width="90" height="60" as="geometry" />
        </mxCell>
        <mxCell id="qVubjtH19KVvBnq9pwk1-86" value="" style="rounded=0;whiteSpace=wrap;html=1;fillColor=#60a917;fontColor=#ffffff;strokeColor=#2D7600;" vertex="1" parent="qVubjtH19KVvBnq9pwk1-79">
          <mxGeometry x="437" y="230" width="90" height="60" as="geometry" />
        </mxCell>
        <mxCell id="qVubjtH19KVvBnq9pwk1-87" value="" style="rounded=0;whiteSpace=wrap;html=1;fillColor=#60a917;fontColor=#ffffff;strokeColor=#2D7600;" vertex="1" parent="qVubjtH19KVvBnq9pwk1-79">
          <mxGeometry x="315" y="303" width="90" height="60" as="geometry" />
        </mxCell>
        <mxCell id="qVubjtH19KVvBnq9pwk1-88" value="" style="rounded=0;whiteSpace=wrap;html=1;fillColor=#60a917;fontColor=#ffffff;strokeColor=#2D7600;" vertex="1" parent="qVubjtH19KVvBnq9pwk1-79">
          <mxGeometry x="437" y="303" width="90" height="60" as="geometry" />
        </mxCell>
        <mxCell id="qVubjtH19KVvBnq9pwk1-89" value="Проекты компании" style="html=1;whiteSpace=wrap;fillColor=none;fontColor=#000000;strokeColor=none;" vertex="1" parent="qVubjtH19KVvBnq9pwk1-79">
          <mxGeometry x="293" y="110" width="267" height="40" as="geometry" />
        </mxCell>
        <mxCell id="qVubjtH19KVvBnq9pwk1-90" value="Место для будущих функций" style="rounded=0;whiteSpace=wrap;html=1;fillColor=#60a917;fontColor=#ffffff;strokeColor=#2D7600;" vertex="1" parent="qVubjtH19KVvBnq9pwk1-79">
          <mxGeometry x="10" y="120" width="270" height="250" as="geometry" />
        </mxCell>
        <mxCell id="qVubjtH19KVvBnq9pwk1-91" value="" style="endArrow=none;html=1;rounded=0;entryX=0.521;entryY=0.004;entryDx=0;entryDy=0;entryPerimeter=0;exitX=0.521;exitY=1;exitDx=0;exitDy=0;exitPerimeter=0;" edge="1" parent="qVubjtH19KVvBnq9pwk1-79" source="qVubjtH19KVvBnq9pwk1-80" target="qVubjtH19KVvBnq9pwk1-80">
          <mxGeometry width="50" height="50" relative="1" as="geometry">
            <mxPoint x="294.79999999999995" y="379.86" as="sourcePoint" />
            <mxPoint x="294.25" y="110" as="targetPoint" />
          </mxGeometry>
        </mxCell>
        <mxCell id="qVubjtH19KVvBnq9pwk1-92" value="&lt;font style=&quot;font-size: 10px;&quot;&gt;карточка проекта&lt;/font&gt;" style="rounded=0;whiteSpace=wrap;html=1;fillColor=#008a00;fontColor=#ffffff;strokeColor=#005700;" vertex="1" parent="qVubjtH19KVvBnq9pwk1-79">
          <mxGeometry x="330" y="329" width="60" height="30" as="geometry" />
        </mxCell>
        <mxCell id="qVubjtH19KVvBnq9pwk1-93" value="&lt;font style=&quot;font-size: 10px;&quot;&gt;карточка проекта&lt;/font&gt;" style="rounded=0;whiteSpace=wrap;html=1;fillColor=#008a00;fontColor=#ffffff;strokeColor=#005700;" vertex="1" parent="qVubjtH19KVvBnq9pwk1-79">
          <mxGeometry x="452" y="329" width="60" height="30" as="geometry" />
        </mxCell>
        <mxCell id="qVubjtH19KVvBnq9pwk1-94" value="&lt;font style=&quot;font-size: 10px;&quot;&gt;карточка проекта&lt;/font&gt;" style="rounded=0;whiteSpace=wrap;html=1;fillColor=#008a00;fontColor=#ffffff;strokeColor=#005700;" vertex="1" parent="qVubjtH19KVvBnq9pwk1-79">
          <mxGeometry x="452" y="256" width="60" height="30" as="geometry" />
        </mxCell>
        <mxCell id="qVubjtH19KVvBnq9pwk1-95" value="&lt;font style=&quot;font-size: 10px;&quot;&gt;карточка проекта&lt;/font&gt;" style="rounded=0;whiteSpace=wrap;html=1;fillColor=#008a00;fontColor=#ffffff;strokeColor=#005700;" vertex="1" parent="qVubjtH19KVvBnq9pwk1-79">
          <mxGeometry x="330" y="256" width="60" height="30" as="geometry" />
        </mxCell>
        <mxCell id="qVubjtH19KVvBnq9pwk1-96" value="&lt;font style=&quot;font-size: 10px;&quot;&gt;карточка проекта&lt;/font&gt;" style="rounded=0;whiteSpace=wrap;html=1;fillColor=#008a00;fontColor=#ffffff;strokeColor=#005700;" vertex="1" parent="qVubjtH19KVvBnq9pwk1-79">
          <mxGeometry x="452" y="183" width="60" height="30" as="geometry" />
        </mxCell>
        <mxCell id="qVubjtH19KVvBnq9pwk1-97" value="&lt;font style=&quot;font-size: 10px;&quot;&gt;карточка проекта&lt;/font&gt;" style="rounded=0;whiteSpace=wrap;html=1;fillColor=#008a00;fontColor=#ffffff;strokeColor=#005700;" vertex="1" parent="qVubjtH19KVvBnq9pwk1-79">
          <mxGeometry x="330" y="183" width="60" height="30" as="geometry" />
        </mxCell>
        <mxCell id="qVubjtH19KVvBnq9pwk1-98" value="&lt;font color=&quot;#ffffff&quot; style=&quot;font-size: 10px;&quot;&gt;Проект 1&lt;/font&gt;" style="text;html=1;align=center;verticalAlign=middle;whiteSpace=wrap;rounded=0;" vertex="1" parent="qVubjtH19KVvBnq9pwk1-79">
          <mxGeometry x="330" y="157" width="60" height="27" as="geometry" />
        </mxCell>
        <mxCell id="qVubjtH19KVvBnq9pwk1-99" value="&lt;font color=&quot;#ffffff&quot; style=&quot;font-size: 10px;&quot;&gt;Проект 5&lt;/font&gt;" style="text;html=1;align=center;verticalAlign=middle;whiteSpace=wrap;rounded=0;" vertex="1" parent="qVubjtH19KVvBnq9pwk1-79">
          <mxGeometry x="330" y="300" width="60" height="27" as="geometry" />
        </mxCell>
        <mxCell id="qVubjtH19KVvBnq9pwk1-100" value="&lt;font color=&quot;#ffffff&quot; style=&quot;font-size: 10px;&quot;&gt;Проект 6&lt;/font&gt;" style="text;html=1;align=center;verticalAlign=middle;whiteSpace=wrap;rounded=0;" vertex="1" parent="qVubjtH19KVvBnq9pwk1-79">
          <mxGeometry x="452" y="300" width="60" height="27" as="geometry" />
        </mxCell>
        <mxCell id="qVubjtH19KVvBnq9pwk1-101" value="&lt;font color=&quot;#ffffff&quot; style=&quot;font-size: 10px;&quot;&gt;Проект 4&lt;/font&gt;" style="text;html=1;align=center;verticalAlign=middle;whiteSpace=wrap;rounded=0;" vertex="1" parent="qVubjtH19KVvBnq9pwk1-79">
          <mxGeometry x="452" y="229" width="60" height="27" as="geometry" />
        </mxCell>
        <mxCell id="qVubjtH19KVvBnq9pwk1-102" value="&lt;font color=&quot;#ffffff&quot; style=&quot;font-size: 10px;&quot;&gt;Проект 3&lt;/font&gt;" style="text;html=1;align=center;verticalAlign=middle;whiteSpace=wrap;rounded=0;" vertex="1" parent="qVubjtH19KVvBnq9pwk1-79">
          <mxGeometry x="330" y="229" width="60" height="27" as="geometry" />
        </mxCell>
        <mxCell id="qVubjtH19KVvBnq9pwk1-103" value="&lt;font color=&quot;#ffffff&quot; style=&quot;font-size: 10px;&quot;&gt;Проект 2&lt;/font&gt;" style="text;html=1;align=center;verticalAlign=middle;whiteSpace=wrap;rounded=0;" vertex="1" parent="qVubjtH19KVvBnq9pwk1-79">
          <mxGeometry x="452" y="156" width="60" height="27" as="geometry" />
        </mxCell>
        <mxCell id="qVubjtH19KVvBnq9pwk1-104" value="" style="strokeWidth=1;shadow=0;dashed=0;align=center;html=1;shape=mxgraph.mockup.containers.browserWindow;rSize=0;strokeColor2=#008cff;strokeColor3=#c4c4c4;mainText=,;recursiveResize=0;" vertex="1" parent="1">
          <mxGeometry x="660" y="51" width="560" height="380" as="geometry" />
        </mxCell>
        <mxCell id="qVubjtH19KVvBnq9pwk1-105" value="" style="rounded=0;whiteSpace=wrap;html=1;fillColor=#d5e8d4;strokeColor=#000000;" vertex="1" parent="qVubjtH19KVvBnq9pwk1-104">
          <mxGeometry y="110" width="560" height="270" as="geometry" />
        </mxCell>
        <mxCell id="qVubjtH19KVvBnq9pwk1-106" value="Дороги Рос..." style="strokeWidth=1;shadow=0;dashed=0;align=center;html=1;shape=mxgraph.mockup.containers.anchor;fontSize=17;fontColor=#666666;align=left;whiteSpace=wrap;" vertex="1" parent="qVubjtH19KVvBnq9pwk1-104">
          <mxGeometry x="60" y="12" width="110" height="26" as="geometry" />
        </mxCell>
        <mxCell id="qVubjtH19KVvBnq9pwk1-107" value="https://RussionsWays" style="strokeWidth=1;shadow=0;dashed=0;align=center;html=1;shape=mxgraph.mockup.containers.anchor;rSize=0;fontSize=17;fontColor=#666666;align=left;" vertex="1" parent="qVubjtH19KVvBnq9pwk1-104">
          <mxGeometry x="130" y="60" width="250" height="26" as="geometry" />
        </mxCell>
        <mxCell id="qVubjtH19KVvBnq9pwk1-108" value="" style="rounded=0;whiteSpace=wrap;html=1;fillColor=#60a917;strokeColor=#2D7600;fontColor=#ffffff;" vertex="1" parent="qVubjtH19KVvBnq9pwk1-104">
          <mxGeometry x="315" y="157" width="90" height="60" as="geometry" />
        </mxCell>
        <mxCell id="qVubjtH19KVvBnq9pwk1-109" value="" style="rounded=0;whiteSpace=wrap;html=1;fillColor=#60a917;strokeColor=#2D7600;fontColor=#ffffff;" vertex="1" parent="qVubjtH19KVvBnq9pwk1-104">
          <mxGeometry x="437" y="157" width="90" height="60" as="geometry" />
        </mxCell>
        <mxCell id="qVubjtH19KVvBnq9pwk1-110" value="" style="rounded=0;whiteSpace=wrap;html=1;fillColor=#60a917;strokeColor=#2D7600;fontColor=#ffffff;align=left;" vertex="1" parent="qVubjtH19KVvBnq9pwk1-104">
          <mxGeometry x="315" y="230" width="90" height="60" as="geometry" />
        </mxCell>
        <mxCell id="qVubjtH19KVvBnq9pwk1-111" value="" style="rounded=0;whiteSpace=wrap;html=1;fillColor=#60a917;fontColor=#ffffff;strokeColor=#2D7600;" vertex="1" parent="qVubjtH19KVvBnq9pwk1-104">
          <mxGeometry x="437" y="230" width="90" height="60" as="geometry" />
        </mxCell>
        <mxCell id="qVubjtH19KVvBnq9pwk1-112" value="" style="rounded=0;whiteSpace=wrap;html=1;fillColor=#60a917;fontColor=#ffffff;strokeColor=#2D7600;" vertex="1" parent="qVubjtH19KVvBnq9pwk1-104">
          <mxGeometry x="315" y="303" width="90" height="60" as="geometry" />
        </mxCell>
        <mxCell id="qVubjtH19KVvBnq9pwk1-113" value="" style="rounded=0;whiteSpace=wrap;html=1;fillColor=#60a917;fontColor=#ffffff;strokeColor=#2D7600;" vertex="1" parent="qVubjtH19KVvBnq9pwk1-104">
          <mxGeometry x="437" y="303" width="90" height="60" as="geometry" />
        </mxCell>
        <mxCell id="qVubjtH19KVvBnq9pwk1-114" value="Проекты компании" style="html=1;whiteSpace=wrap;fillColor=none;fontColor=#000000;strokeColor=none;" vertex="1" parent="qVubjtH19KVvBnq9pwk1-104">
          <mxGeometry x="293" y="110" width="267" height="40" as="geometry" />
        </mxCell>
        <mxCell id="qVubjtH19KVvBnq9pwk1-115" value="Место для будущих функций" style="rounded=0;whiteSpace=wrap;html=1;fillColor=#60a917;fontColor=#ffffff;strokeColor=#2D7600;" vertex="1" parent="qVubjtH19KVvBnq9pwk1-104">
          <mxGeometry x="10" y="120" width="270" height="250" as="geometry" />
        </mxCell>
        <mxCell id="qVubjtH19KVvBnq9pwk1-116" value="" style="endArrow=none;html=1;rounded=0;entryX=0.521;entryY=0.004;entryDx=0;entryDy=0;entryPerimeter=0;exitX=0.521;exitY=1;exitDx=0;exitDy=0;exitPerimeter=0;" edge="1" parent="qVubjtH19KVvBnq9pwk1-104" source="qVubjtH19KVvBnq9pwk1-105" target="qVubjtH19KVvBnq9pwk1-105">
          <mxGeometry width="50" height="50" relative="1" as="geometry">
            <mxPoint x="294.79999999999995" y="379.86" as="sourcePoint" />
            <mxPoint x="294.25" y="110" as="targetPoint" />
          </mxGeometry>
        </mxCell>
        <mxCell id="qVubjtH19KVvBnq9pwk1-117" value="&lt;font style=&quot;font-size: 10px;&quot;&gt;карточка проекта&lt;/font&gt;" style="rounded=0;whiteSpace=wrap;html=1;fillColor=#008a00;fontColor=#ffffff;strokeColor=#005700;" vertex="1" parent="qVubjtH19KVvBnq9pwk1-104">
          <mxGeometry x="330" y="329" width="60" height="30" as="geometry" />
        </mxCell>
        <mxCell id="qVubjtH19KVvBnq9pwk1-118" value="&lt;font style=&quot;font-size: 10px;&quot;&gt;карточка проекта&lt;/font&gt;" style="rounded=0;whiteSpace=wrap;html=1;fillColor=#008a00;fontColor=#ffffff;strokeColor=#005700;" vertex="1" parent="qVubjtH19KVvBnq9pwk1-104">
          <mxGeometry x="452" y="329" width="60" height="30" as="geometry" />
        </mxCell>
        <mxCell id="qVubjtH19KVvBnq9pwk1-119" value="&lt;font style=&quot;font-size: 10px;&quot;&gt;карточка проекта&lt;/font&gt;" style="rounded=0;whiteSpace=wrap;html=1;fillColor=#008a00;fontColor=#ffffff;strokeColor=#005700;" vertex="1" parent="qVubjtH19KVvBnq9pwk1-104">
          <mxGeometry x="452" y="256" width="60" height="30" as="geometry" />
        </mxCell>
        <mxCell id="qVubjtH19KVvBnq9pwk1-120" value="&lt;font style=&quot;font-size: 10px;&quot;&gt;карточка проекта&lt;/font&gt;" style="rounded=0;whiteSpace=wrap;html=1;fillColor=#008a00;fontColor=#ffffff;strokeColor=#005700;" vertex="1" parent="qVubjtH19KVvBnq9pwk1-104">
          <mxGeometry x="330" y="256" width="60" height="30" as="geometry" />
        </mxCell>
        <mxCell id="qVubjtH19KVvBnq9pwk1-121" value="&lt;font style=&quot;font-size: 10px;&quot;&gt;карточка проекта&lt;/font&gt;" style="rounded=0;whiteSpace=wrap;html=1;fillColor=#008a00;fontColor=#ffffff;strokeColor=#005700;" vertex="1" parent="qVubjtH19KVvBnq9pwk1-104">
          <mxGeometry x="452" y="183" width="60" height="30" as="geometry" />
        </mxCell>
        <mxCell id="qVubjtH19KVvBnq9pwk1-122" value="&lt;font style=&quot;font-size: 10px;&quot;&gt;карточка проекта&lt;/font&gt;" style="rounded=0;whiteSpace=wrap;html=1;fillColor=#008a00;fontColor=#ffffff;strokeColor=#005700;" vertex="1" parent="qVubjtH19KVvBnq9pwk1-104">
          <mxGeometry x="330" y="183" width="60" height="30" as="geometry" />
        </mxCell>
        <mxCell id="qVubjtH19KVvBnq9pwk1-123" value="&lt;font color=&quot;#ffffff&quot; style=&quot;font-size: 10px;&quot;&gt;Проект 1&lt;/font&gt;" style="text;html=1;align=center;verticalAlign=middle;whiteSpace=wrap;rounded=0;" vertex="1" parent="qVubjtH19KVvBnq9pwk1-104">
          <mxGeometry x="330" y="157" width="60" height="27" as="geometry" />
        </mxCell>
        <mxCell id="qVubjtH19KVvBnq9pwk1-124" value="&lt;font color=&quot;#ffffff&quot; style=&quot;font-size: 10px;&quot;&gt;Проект 5&lt;/font&gt;" style="text;html=1;align=center;verticalAlign=middle;whiteSpace=wrap;rounded=0;" vertex="1" parent="qVubjtH19KVvBnq9pwk1-104">
          <mxGeometry x="330" y="300" width="60" height="27" as="geometry" />
        </mxCell>
        <mxCell id="qVubjtH19KVvBnq9pwk1-125" value="&lt;font color=&quot;#ffffff&quot; style=&quot;font-size: 10px;&quot;&gt;Проект 6&lt;/font&gt;" style="text;html=1;align=center;verticalAlign=middle;whiteSpace=wrap;rounded=0;" vertex="1" parent="qVubjtH19KVvBnq9pwk1-104">
          <mxGeometry x="452" y="300" width="60" height="27" as="geometry" />
        </mxCell>
        <mxCell id="qVubjtH19KVvBnq9pwk1-126" value="&lt;font color=&quot;#ffffff&quot; style=&quot;font-size: 10px;&quot;&gt;Проект 4&lt;/font&gt;" style="text;html=1;align=center;verticalAlign=middle;whiteSpace=wrap;rounded=0;" vertex="1" parent="qVubjtH19KVvBnq9pwk1-104">
          <mxGeometry x="452" y="229" width="60" height="27" as="geometry" />
        </mxCell>
        <mxCell id="qVubjtH19KVvBnq9pwk1-127" value="&lt;font color=&quot;#ffffff&quot; style=&quot;font-size: 10px;&quot;&gt;Проект 3&lt;/font&gt;" style="text;html=1;align=center;verticalAlign=middle;whiteSpace=wrap;rounded=0;" vertex="1" parent="qVubjtH19KVvBnq9pwk1-104">
          <mxGeometry x="330" y="229" width="60" height="27" as="geometry" />
        </mxCell>
        <mxCell id="qVubjtH19KVvBnq9pwk1-128" value="&lt;font color=&quot;#ffffff&quot; style=&quot;font-size: 10px;&quot;&gt;Проект 2&lt;/font&gt;" style="text;html=1;align=center;verticalAlign=middle;whiteSpace=wrap;rounded=0;" vertex="1" parent="qVubjtH19KVvBnq9pwk1-104">
          <mxGeometry x="452" y="156" width="60" height="27" as="geometry" />
        </mxCell>
        <mxCell id="qVubjtH19KVvBnq9pwk1-41" value="" style="endArrow=none;html=1;rounded=0;exitX=-0.003;exitY=0.353;exitDx=0;exitDy=0;exitPerimeter=0;entryX=1.002;entryY=0.347;entryDx=0;entryDy=0;entryPerimeter=0;" edge="1" parent="qVubjtH19KVvBnq9pwk1-104" source="qVubjtH19KVvBnq9pwk1-35" target="qVubjtH19KVvBnq9pwk1-35">
          <mxGeometry width="50" height="50" relative="1" as="geometry">
            <mxPoint x="109.43999999999994" y="631.77" as="sourcePoint" />
            <mxPoint x="470.52" y="631.77" as="targetPoint" />
          </mxGeometry>
        </mxCell>
        <mxCell id="qVubjtH19KVvBnq9pwk1-43" value="" style="endArrow=none;html=1;rounded=0;exitX=0;exitY=0.75;exitDx=0;exitDy=0;entryX=1;entryY=0.75;entryDx=0;entryDy=0;" edge="1" parent="qVubjtH19KVvBnq9pwk1-104" source="qVubjtH19KVvBnq9pwk1-35" target="qVubjtH19KVvBnq9pwk1-35">
          <mxGeometry width="50" height="50" relative="1" as="geometry">
            <mxPoint x="110" y="711.5" as="sourcePoint" />
            <mxPoint x="470" y="711.5" as="targetPoint" />
          </mxGeometry>
        </mxCell>
        <mxCell id="qVubjtH19KVvBnq9pwk1-34" value="" style="rounded=0;whiteSpace=wrap;html=1;fillColor=#000000;opacity=30;" vertex="1" parent="qVubjtH19KVvBnq9pwk1-104">
          <mxGeometry y="110" width="560" height="270" as="geometry" />
        </mxCell>
        <mxCell id="qVubjtH19KVvBnq9pwk1-35" value="" style="rounded=0;whiteSpace=wrap;html=1;fillColor=#60a917;fontColor=#ffffff;strokeColor=#000000;" vertex="1" parent="qVubjtH19KVvBnq9pwk1-104">
          <mxGeometry x="100" y="137.5" width="360" height="210" as="geometry" />
        </mxCell>
        <mxCell id="qVubjtH19KVvBnq9pwk1-40" value="&lt;font color=&quot;#ffffff&quot;&gt;Руководитель проекта&lt;/font&gt;" style="text;html=1;align=center;verticalAlign=middle;whiteSpace=wrap;rounded=0;" vertex="1" parent="qVubjtH19KVvBnq9pwk1-104">
          <mxGeometry x="105" y="190" width="130" height="30" as="geometry" />
        </mxCell>
        <mxCell id="qVubjtH19KVvBnq9pwk1-38" value="" style="endArrow=none;html=1;rounded=0;entryX=0.45;entryY=0.01;entryDx=0;entryDy=0;entryPerimeter=0;exitX=0.45;exitY=1.012;exitDx=0;exitDy=0;exitPerimeter=0;" edge="1" parent="qVubjtH19KVvBnq9pwk1-104">
          <mxGeometry width="50" height="50" relative="1" as="geometry">
            <mxPoint x="270" y="347.5" as="sourcePoint" />
            <mxPoint x="270" y="137.07999999999998" as="targetPoint" />
          </mxGeometry>
        </mxCell>
        <mxCell id="qVubjtH19KVvBnq9pwk1-45" value="&lt;font color=&quot;#ffffff&quot;&gt;25.10.2024&lt;/font&gt;" style="text;html=1;align=left;verticalAlign=middle;whiteSpace=wrap;rounded=0;" vertex="1" parent="qVubjtH19KVvBnq9pwk1-104">
          <mxGeometry x="280" y="221" width="130" height="30" as="geometry" />
        </mxCell>
        <mxCell id="qVubjtH19KVvBnq9pwk1-36" value="&lt;font color=&quot;#ffffff&quot;&gt;Дата начала пректа&lt;/font&gt;&lt;span style=&quot;color: rgba(0, 0, 0, 0); font-family: monospace; font-size: 0px; text-wrap: nowrap;&quot;&gt;%3CmxGraphModel%3E%3Croot%3E%3CmxCell%20id%3D%220%22%2F%3E%3CmxCell%20id%3D%221%22%20parent%3D%220%22%2F%3E%3CmxCell%20id%3D%222%22%20value%3D%22%26lt%3Bfont%20color%3D%26quot%3B%23ffffff%26quot%3B%26gt%3B%D0%A0%D1%83%D0%BA%D0%BE%D0%B2%D0%BE%D0%B4%D0%B8%D1%82%D0%B5%D0%BB%D1%8C%20%D0%BF%D1%80%D0%BE%D0%B5%D0%BA%D1%82%D0%B0%26lt%3B%2Ffont%26gt%3B%22%20style%3D%22text%3Bhtml%3D1%3Balign%3Dcenter%3BverticalAlign%3Dmiddle%3BwhiteSpace%3Dwrap%3Brounded%3D0%3B%22%20vertex%3D%221%22%20parent%3D%221%22%3E%3CmxGeometry%20x%3D%22152%22%20y%3D%22220%22%20width%3D%22130%22%20height%3D%2230%22%20as%3D%22geometry%22%2F%3E%3C%2FmxCell%3E%3C%2Froot%3E%3C%2FmxGraphModel%3E&lt;/span&gt;" style="text;html=1;align=left;verticalAlign=middle;whiteSpace=wrap;rounded=0;" vertex="1" parent="qVubjtH19KVvBnq9pwk1-104">
          <mxGeometry x="105" y="222" width="130" height="30" as="geometry" />
        </mxCell>
        <mxCell id="qVubjtH19KVvBnq9pwk1-46" value="&lt;font color=&quot;#ffffff&quot;&gt;13.12.2024&lt;/font&gt;" style="text;html=1;align=left;verticalAlign=middle;whiteSpace=wrap;rounded=0;" vertex="1" parent="qVubjtH19KVvBnq9pwk1-104">
          <mxGeometry x="280" y="250" width="130" height="30" as="geometry" />
        </mxCell>
        <mxCell id="qVubjtH19KVvBnq9pwk1-48" value="&lt;font color=&quot;#ffffff&quot;&gt;6 дней&lt;/font&gt;" style="text;html=1;align=left;verticalAlign=middle;whiteSpace=wrap;rounded=0;" vertex="1" parent="qVubjtH19KVvBnq9pwk1-104">
          <mxGeometry x="280" y="280" width="140" height="30" as="geometry" />
        </mxCell>
        <mxCell id="qVubjtH19KVvBnq9pwk1-49" value="&lt;font color=&quot;#ffffff&quot;&gt;Оклонение от срока&lt;/font&gt;" style="text;html=1;align=left;verticalAlign=middle;whiteSpace=wrap;rounded=0;" vertex="1" parent="qVubjtH19KVvBnq9pwk1-104">
          <mxGeometry x="105" y="280" width="140" height="30" as="geometry" />
        </mxCell>
        <mxCell id="qVubjtH19KVvBnq9pwk1-50" value="" style="rounded=0;whiteSpace=wrap;html=1;fillColor=#008a00;fontColor=#ffffff;strokeColor=#000000;" vertex="1" parent="qVubjtH19KVvBnq9pwk1-104">
          <mxGeometry x="100" y="310" width="360" height="37.5" as="geometry" />
        </mxCell>
        <mxCell id="qVubjtH19KVvBnq9pwk1-47" value="&lt;font style=&quot;font-size: 10px;&quot;&gt;Закрыть&lt;/font&gt;" style="rounded=0;whiteSpace=wrap;html=1;fillColor=#60a917;fontColor=#ffffff;strokeColor=#000000;" vertex="1" parent="qVubjtH19KVvBnq9pwk1-104">
          <mxGeometry x="379" y="318.75" width="70" height="20" as="geometry" />
        </mxCell>
        <mxCell id="qVubjtH19KVvBnq9pwk1-39" value="&lt;font style=&quot;font-size: 14px;&quot;&gt;&amp;nbsp; Карточка проекта 2&lt;/font&gt;" style="rounded=0;whiteSpace=wrap;html=1;fillColor=#008a00;fontColor=#ffffff;strokeColor=#000000;align=left;" vertex="1" parent="qVubjtH19KVvBnq9pwk1-104">
          <mxGeometry x="100" y="137.5" width="360" height="52.5" as="geometry" />
        </mxCell>
        <mxCell id="qVubjtH19KVvBnq9pwk1-37" value="&lt;font color=&quot;#ffffff&quot;&gt;Дата окончания проекта&lt;/font&gt;" style="text;html=1;align=center;verticalAlign=middle;whiteSpace=wrap;rounded=0;" vertex="1" parent="qVubjtH19KVvBnq9pwk1-104">
          <mxGeometry x="105" y="251" width="140" height="30" as="geometry" />
        </mxCell>
        <mxCell id="qVubjtH19KVvBnq9pwk1-44" value="&lt;font color=&quot;#ffffff&quot;&gt;Иванов Иван Иванович&lt;/font&gt;" style="text;html=1;align=left;verticalAlign=middle;whiteSpace=wrap;rounded=0;" vertex="1" parent="qVubjtH19KVvBnq9pwk1-104">
          <mxGeometry x="280" y="191" width="150" height="30" as="geometry" />
        </mxCell>
        <mxCell id="qVubjtH19KVvBnq9pwk1-140" value="&lt;font style=&quot;font-size: 10px;&quot;&gt;Подробнее&lt;/font&gt;" style="rounded=0;whiteSpace=wrap;html=1;fillColor=#60a917;fontColor=#ffffff;strokeColor=#000000;" vertex="1" parent="qVubjtH19KVvBnq9pwk1-104">
          <mxGeometry x="110" y="318.75" width="70" height="20" as="geometry" />
        </mxCell>
        <mxCell id="qVubjtH19KVvBnq9pwk1-167" value="Статус" style="rounded=0;whiteSpace=wrap;html=1;" vertex="1" parent="qVubjtH19KVvBnq9pwk1-104">
          <mxGeometry x="353" y="148.75" width="99" height="30" as="geometry" />
        </mxCell>
        <mxCell id="qVubjtH19KVvBnq9pwk1-133" value="" style="endArrow=none;html=1;rounded=0;exitX=0.002;exitY=0.548;exitDx=0;exitDy=0;entryX=1.005;entryY=0.553;entryDx=0;entryDy=0;entryPerimeter=0;exitPerimeter=0;" edge="1" parent="1">
          <mxGeometry width="50" height="50" relative="1" as="geometry">
            <mxPoint x="759" y="301.44999999999993" as="sourcePoint" />
            <mxPoint x="1120.0799999999997" y="302.5" as="targetPoint" />
          </mxGeometry>
        </mxCell>
        <mxCell id="qVubjtH19KVvBnq9pwk1-134" value="" style="endArrow=none;html=1;rounded=0;exitX=0.002;exitY=0.548;exitDx=0;exitDy=0;entryX=1.005;entryY=0.553;entryDx=0;entryDy=0;entryPerimeter=0;exitPerimeter=0;" edge="1" parent="1">
          <mxGeometry width="50" height="50" relative="1" as="geometry">
            <mxPoint x="759" y="330.44999999999993" as="sourcePoint" />
            <mxPoint x="1120.0799999999997" y="331.5" as="targetPoint" />
          </mxGeometry>
        </mxCell>
        <mxCell id="qVubjtH19KVvBnq9pwk1-136" value="" style="endArrow=none;html=1;rounded=0;exitX=0.002;exitY=0.548;exitDx=0;exitDy=0;entryX=1.005;entryY=0.553;entryDx=0;entryDy=0;entryPerimeter=0;exitPerimeter=0;" edge="1" parent="1">
          <mxGeometry width="50" height="50" relative="1" as="geometry">
            <mxPoint x="759" y="272.44999999999993" as="sourcePoint" />
            <mxPoint x="1120.0799999999997" y="273.5" as="targetPoint" />
          </mxGeometry>
        </mxCell>
        <mxCell id="qVubjtH19KVvBnq9pwk1-139" style="edgeStyle=orthogonalEdgeStyle;rounded=0;orthogonalLoop=1;jettySize=auto;html=1;exitX=1;exitY=0.5;exitDx=0;exitDy=0;entryX=0;entryY=0.5;entryDx=0;entryDy=0;" edge="1" parent="1" source="qVubjtH19KVvBnq9pwk1-96" target="qVubjtH19KVvBnq9pwk1-39">
          <mxGeometry relative="1" as="geometry">
            <Array as="points">
              <mxPoint x="650" y="249" />
              <mxPoint x="650" y="214" />
            </Array>
          </mxGeometry>
        </mxCell>
        <mxCell id="qVubjtH19KVvBnq9pwk1-142" style="edgeStyle=orthogonalEdgeStyle;rounded=0;orthogonalLoop=1;jettySize=auto;html=1;exitX=0.5;exitY=1;exitDx=0;exitDy=0;" edge="1" parent="1" source="qVubjtH19KVvBnq9pwk1-140">
          <mxGeometry relative="1" as="geometry">
            <mxPoint x="804" y="460" as="targetPoint" />
          </mxGeometry>
        </mxCell>
        <mxCell id="qVubjtH19KVvBnq9pwk1-153" value="" style="group" vertex="1" connectable="0" parent="1">
          <mxGeometry x="660" y="460" width="560" height="380" as="geometry" />
        </mxCell>
        <mxCell id="qVubjtH19KVvBnq9pwk1-51" value="" style="strokeWidth=1;shadow=0;dashed=0;align=center;html=1;shape=mxgraph.mockup.containers.browserWindow;rSize=0;strokeColor2=#008cff;strokeColor3=#c4c4c4;mainText=,;recursiveResize=0;fontColor=#000000;container=0;" vertex="1" parent="qVubjtH19KVvBnq9pwk1-153">
          <mxGeometry width="560" height="380" as="geometry" />
        </mxCell>
        <mxCell id="qVubjtH19KVvBnq9pwk1-52" value="" style="rounded=0;whiteSpace=wrap;html=1;fillColor=#d5e8d4;strokeColor=#000000;" vertex="1" parent="qVubjtH19KVvBnq9pwk1-153">
          <mxGeometry y="110" width="560" height="270" as="geometry" />
        </mxCell>
        <mxCell id="qVubjtH19KVvBnq9pwk1-53" value="Дороги Рос..." style="strokeWidth=1;shadow=0;dashed=0;align=center;html=1;shape=mxgraph.mockup.containers.anchor;fontSize=17;fontColor=#666666;align=left;whiteSpace=wrap;" vertex="1" parent="qVubjtH19KVvBnq9pwk1-153">
          <mxGeometry x="60" y="12" width="110" height="26" as="geometry" />
        </mxCell>
        <mxCell id="qVubjtH19KVvBnq9pwk1-54" value="https://RussionsWays/project2" style="strokeWidth=1;shadow=0;dashed=0;align=center;html=1;shape=mxgraph.mockup.containers.anchor;rSize=0;fontSize=17;fontColor=#666666;align=left;" vertex="1" parent="qVubjtH19KVvBnq9pwk1-153">
          <mxGeometry x="130" y="60" width="250" height="26" as="geometry" />
        </mxCell>
        <mxCell id="qVubjtH19KVvBnq9pwk1-55" value="" style="rounded=0;whiteSpace=wrap;html=1;fillColor=#60a917;fontColor=#ffffff;strokeColor=#000000;" vertex="1" parent="qVubjtH19KVvBnq9pwk1-153">
          <mxGeometry x="18" y="130" width="522" height="230" as="geometry" />
        </mxCell>
        <mxCell id="qVubjtH19KVvBnq9pwk1-141" value="&lt;font style=&quot;font-size: 14px;&quot;&gt;&amp;nbsp; Проект 2&lt;/font&gt;" style="rounded=0;whiteSpace=wrap;html=1;fillColor=#60a917;strokeColor=#000000;fontColor=#ffffff;align=left;" vertex="1" parent="qVubjtH19KVvBnq9pwk1-153">
          <mxGeometry x="18" y="130" width="522" height="40" as="geometry" />
        </mxCell>
        <mxCell id="qVubjtH19KVvBnq9pwk1-143" value="" style="rounded=0;whiteSpace=wrap;html=1;fillColor=#60a917;fontColor=#ffffff;strokeColor=#000000;" vertex="1" parent="qVubjtH19KVvBnq9pwk1-153">
          <mxGeometry x="18" y="170" width="172" height="190" as="geometry" />
        </mxCell>
        <mxCell id="qVubjtH19KVvBnq9pwk1-151" value="" style="rounded=0;whiteSpace=wrap;html=1;fillColor=#60a917;fontColor=#ffffff;strokeColor=#000000;" vertex="1" parent="qVubjtH19KVvBnq9pwk1-153">
          <mxGeometry x="368" y="170" width="172" height="190" as="geometry" />
        </mxCell>
        <mxCell id="qVubjtH19KVvBnq9pwk1-152" value="" style="endArrow=none;html=1;rounded=0;exitX=0.016;exitY=0.196;exitDx=0;exitDy=0;exitPerimeter=0;entryX=1.014;entryY=0.196;entryDx=0;entryDy=0;entryPerimeter=0;" edge="1" parent="qVubjtH19KVvBnq9pwk1-153">
          <mxGeometry width="50" height="50" relative="1" as="geometry">
            <mxPoint x="18.75200000000018" y="207.24" as="sourcePoint" />
            <mxPoint x="540.52" y="207.24" as="targetPoint" />
          </mxGeometry>
        </mxCell>
        <mxCell id="qVubjtH19KVvBnq9pwk1-154" value="&lt;font color=&quot;#ffffff&quot;&gt;Планирование&lt;/font&gt;" style="text;html=1;align=center;verticalAlign=middle;whiteSpace=wrap;rounded=0;" vertex="1" parent="qVubjtH19KVvBnq9pwk1-153">
          <mxGeometry x="18" y="170" width="172" height="40" as="geometry" />
        </mxCell>
        <mxCell id="qVubjtH19KVvBnq9pwk1-155" value="&lt;font color=&quot;#ffffff&quot;&gt;Исполнение&lt;/font&gt;" style="text;html=1;align=center;verticalAlign=middle;whiteSpace=wrap;rounded=0;" vertex="1" parent="qVubjtH19KVvBnq9pwk1-153">
          <mxGeometry x="191" y="170" width="172" height="40" as="geometry" />
        </mxCell>
        <mxCell id="qVubjtH19KVvBnq9pwk1-156" value="&lt;font color=&quot;#ffffff&quot;&gt;Контроль&lt;/font&gt;" style="text;html=1;align=center;verticalAlign=middle;whiteSpace=wrap;rounded=0;" vertex="1" parent="qVubjtH19KVvBnq9pwk1-153">
          <mxGeometry x="366" y="170" width="172" height="40" as="geometry" />
        </mxCell>
        <mxCell id="qVubjtH19KVvBnq9pwk1-157" value="Сотрудник 1" style="rounded=0;whiteSpace=wrap;html=1;fillColor=#008a00;fontColor=#ffffff;strokeColor=#005700;" vertex="1" parent="qVubjtH19KVvBnq9pwk1-153">
          <mxGeometry x="44" y="215" width="120" height="35" as="geometry" />
        </mxCell>
        <mxCell id="qVubjtH19KVvBnq9pwk1-159" value="Сотрудник 3" style="rounded=0;whiteSpace=wrap;html=1;fillColor=#008a00;fontColor=#ffffff;strokeColor=#005700;" vertex="1" parent="qVubjtH19KVvBnq9pwk1-153">
          <mxGeometry x="44" y="303" width="120" height="35" as="geometry" />
        </mxCell>
        <mxCell id="qVubjtH19KVvBnq9pwk1-158" value="Сотрудник 2" style="rounded=0;whiteSpace=wrap;html=1;fillColor=#008a00;fontColor=#ffffff;strokeColor=#005700;" vertex="1" parent="qVubjtH19KVvBnq9pwk1-153">
          <mxGeometry x="44" y="260" width="120" height="35" as="geometry" />
        </mxCell>
        <mxCell id="qVubjtH19KVvBnq9pwk1-165" value="Сотрудник 2" style="rounded=0;whiteSpace=wrap;html=1;fillColor=#008a00;fontColor=#ffffff;strokeColor=#005700;" vertex="1" parent="qVubjtH19KVvBnq9pwk1-153">
          <mxGeometry x="210" y="215" width="120" height="35" as="geometry" />
        </mxCell>
        <mxCell id="qVubjtH19KVvBnq9pwk1-164" value="Сотрудник 3" style="rounded=0;whiteSpace=wrap;html=1;fillColor=#008a00;fontColor=#ffffff;strokeColor=#005700;" vertex="1" parent="qVubjtH19KVvBnq9pwk1-153">
          <mxGeometry x="210" y="260" width="120" height="35" as="geometry" />
        </mxCell>
        <mxCell id="qVubjtH19KVvBnq9pwk1-163" value="Сотрудник 4" style="rounded=0;whiteSpace=wrap;html=1;fillColor=#008a00;fontColor=#ffffff;strokeColor=#005700;" vertex="1" parent="qVubjtH19KVvBnq9pwk1-153">
          <mxGeometry x="210" y="303" width="120" height="35" as="geometry" />
        </mxCell>
        <mxCell id="qVubjtH19KVvBnq9pwk1-162" value="Сотрудник 1" style="rounded=0;whiteSpace=wrap;html=1;fillColor=#008a00;fontColor=#ffffff;strokeColor=#005700;" vertex="1" parent="qVubjtH19KVvBnq9pwk1-153">
          <mxGeometry x="394" y="215" width="120" height="35" as="geometry" />
        </mxCell>
        <mxCell id="qVubjtH19KVvBnq9pwk1-161" value="Сотрудник 5" style="rounded=0;whiteSpace=wrap;html=1;fillColor=#008a00;fontColor=#ffffff;strokeColor=#005700;" vertex="1" parent="qVubjtH19KVvBnq9pwk1-153">
          <mxGeometry x="394" y="260" width="120" height="35" as="geometry" />
        </mxCell>
        <mxCell id="qVubjtH19KVvBnq9pwk1-160" value="Сотрудник 6" style="rounded=0;whiteSpace=wrap;html=1;fillColor=#008a00;fontColor=#ffffff;strokeColor=#005700;" vertex="1" parent="qVubjtH19KVvBnq9pwk1-153">
          <mxGeometry x="394" y="303" width="120" height="35" as="geometry" />
        </mxCell>
        <mxCell id="qVubjtH19KVvBnq9pwk1-166" value="Назад" style="rounded=0;whiteSpace=wrap;html=1;fillColor=#008a00;fontColor=#ffffff;strokeColor=#005700;" vertex="1" parent="qVubjtH19KVvBnq9pwk1-153">
          <mxGeometry x="440" y="137.5" width="90" height="25" as="geometry" />
        </mxCell>
      </root>
    </mxGraphModel>
  </diagram>
</mxfile>
